# File created by Blade
# Date/Time:  Thu Jan 22 19:24:19 2015
# Frame Rate: 120.000 fps
#------------------------------------------------------
:FULLY-SPECIFIED
:DEGREES
1951
root 6.060464 31.969541 -2.904362 10.814763 5.415393 6.611817
RightUpLeg -21.972883 0.212174 5.023760
RightLeg 35.468024 -0.000000 -0.000000
RightFoot -27.989361 -10.462817 -1.304504
RightToeBase 3.339211 -0.000000 -0.000000
LeftUpLeg -0.319475 -11.645438 -20.137933
LeftLeg -3.052195 -0.000000 0.000000
LeftFoot -6.280660 2.302302 -1.299418
LeftToeBase 5.957346 -0.000000 -0.000000
Spine -8.405122 -4.972467 35.133696
RightShoulder -15.105932 -17.129183 0.783543
RightArm 23.232182 -6.618547 60.761980
RightForeArm -6.353511 0.000000 22.164367
RightHand 16.900986 0.000000 -7.311834
RightHandThumb1 -24.326973 -0.000000 -32.862282
LeftShoulder -21.394647 -13.253608 59.454150
LeftArm 44.363279 -52.570804 -18.607467
LeftForeArm 7.943678 0.000000 21.987275
LeftHand 0.022623 0.000000 1.862940
LeftHandThumb1 -26.253704 0.000000 33.147579
Head -4.983259 5.711691 26.828217
1952
root 6.054976 31.968714 -2.895488 10.827808 5.285864 6.574325
RightUpLeg -21.981472 0.273696 5.044910
RightLeg 35.463551 -0.000000 -0.000000
RightFoot -27.935612 -10.260168 -1.137861
RightToeBase 3.294409 -0.000000 -0.000000
LeftUpLeg -0.297677 -11.686168 -20.103968
LeftLeg -3.178712 -0.000000 0.000000
LeftFoot -6.192090 2.383933 -1.446831
LeftToeBase 5.717706 -0.000000 -0.000000
Spine -8.405965 -5.031778 35.171102
RightShoulder -15.096470 -17.075352 0.763367
RightArm 23.360452 -6.715407 60.688065
RightForeArm -6.325428 -0.000000 21.976903
RightHand 16.895729 -0.000000 -7.326562
RightHandThumb1 -24.326973 -0.000000 -32.862282
LeftShoulder -21.441597 -13.373933 59.503992
LeftArm 44.731707 -52.511847 -18.823474
LeftForeArm 8.001346 0.000000 21.930161
LeftHand -0.007912 -0.000000 2.009364
LeftHandThumb1 -26.253704 0.000000 33.147579
Head -4.894785 5.636373 26.888912
1953
root 6.053578 31.968197 -2.889719 10.860126 5.161832 6.568107
RightUpLeg -22.020449 0.351984 5.025230
RightLeg 35.478133 -0.000000 -0.000000
RightFoot -27.895427 -10.172296 -1.107004
RightToeBase 3.344077 -0.000000 -0.000000
LeftUpLeg -0.308464 -11.732942 -20.104548
LeftLeg -3.261807 -0.000000 0.000000
LeftFoot -6.140596 2.506811 -1.422492
LeftToeBase 5.717603 -0.000000 -0.000000
Spine -8.430186 -5.097224 35.176008
RightShoulder -15.053908 -17.072903 0.749891
RightArm 23.485654 -6.755460 60.630076
RightForeArm -6.281651 -0.000000 21.850444
RightHand 16.792257 0.000000 -7.309285
RightHandThumb1 -24.326973 -0.000000 -32.862282
LeftShoulder -21.472549 -13.416775 59.545409
LeftArm 45.104107 -52.508680 -19.037865
LeftForeArm 8.027625 -0.000000 21.853976
LeftHand -0.027365 -0.000000 2.150312
LeftHandThumb1 -26.253704 0.000000 33.147579
Head -4.792342 5.653665 26.966726
1954
root 6.048810 31.968527 -2.881461 10.873861 5.040424 6.534275
RightUpLeg -22.032967 0.410980 5.038559
RightLeg 35.476741 -0.000000 -0.000000
RightFoot -27.860363 -10.063410 -1.112321
RightToeBase 3.412211 -0.000000 -0.000000
LeftUpLeg -0.302336 -11.734336 -20.083694
LeftLeg -3.319970 -0.000000 0.000000
LeftFoot -6.251624 2.731268 -0.917402
LeftToeBase 6.282300 -0.000000 -0.000000
Spine -8.433381 -5.151501 35.205408
RightShoulder -15.021893 -17.022749 0.725646
RightArm 23.562310 -6.791097 60.605689
RightForeArm -6.239325 -0.000000 21.719166
RightHand 16.713866 -0.000000 -7.294618
RightHandThumb1 -24.326973 -0.000000 -32.862282
LeftShoulder -21.504413 -13.434060 59.581993
LeftArm 45.537995 -52.562465 -19.348699
LeftForeArm 8.131682 0.000000 21.815564
LeftHand -0.114293 -0.000000 2.339241
LeftHandThumb1 -26.253704 0.000000 33.147579
Head -4.738242 5.640000 27.081970
1955
root 6.044960 31.969018 -2.873837 10.885118 4.929909 6.511541
RightUpLeg -22.043343 0.451410 5.042795
RightLeg 35.485109 -0.000000 -0.000000
RightFoot -27.847045 -9.896757 -0.922008
RightToeBase 3.296444 -0.000000 -0.000000
LeftUpLeg -0.303968 -11.701690 -20.067451
LeftLeg -3.367686 -0.000000 0.000000
LeftFoot -6.248276 2.787300 -0.841693
LeftToeBase 6.369952 -0.000000 -0.000000
Spine -8.424890 -5.204492 35.222051
RightShoulder -14.997526 -16.970195 0.702748
RightArm 23.618209 -6.769263 60.613378
RightForeArm -6.342955 -0.000000 21.620284
RightHand 16.663512 -0.000000 -7.100588
RightHandThumb1 -24.326973 -0.000000 -32.862282
LeftShoulder -21.546880 -13.557712 59.631841
LeftArm 45.876383 -52.500117 -19.507857
LeftForeArm 8.227540 -0.000000 21.731345
LeftHand -0.160171 -0.000000 2.454373
LeftHandThumb1 -26.253704 0.000000 33.147579
Head -4.733114 5.620222 27.207706
1956
root 6.042034 31.969379 -2.867240 10.896727 4.841543 6.488213
RightUpLeg -22.052767 0.461340 5.053464
RightLeg 35.483387 -0.000000 -0.000000
RightFoot -27.845603 -9.832976 -1.016440
RightToeBase 3.467457 -0.000000 -0.000000
LeftUpLeg -0.311558 -11.663155 -20.054704
LeftLeg -3.396742 -0.000000 0.000000
LeftFoot -6.237231 2.830331 -0.779746
LeftToeBase 6.335603 -0.000000 -0.000000
Spine -8.425271 -5.256934 35.237666
RightShoulder -14.963138 -16.916050 0.673895
RightArm 23.653230 -6.758997 60.639600
RightForeArm -6.317932 0.000000 21.519741
RightHand 16.638554 -0.000000 -7.020636
RightHandThumb1 -24.326973 -0.000000 -32.862282
LeftShoulder -21.589030 -13.665642 59.693719
LeftArm 46.312241 -52.485556 -19.788782
LeftForeArm 8.295893 -0.000000 21.653454
LeftHand -0.191572 -0.000000 2.621418
LeftHandThumb1 -26.253704 0.000000 33.147579
Head -4.725379 5.618703 27.337375
1957
root 6.040072 31.970484 -2.860509 10.905409 4.770834 6.470528
RightUpLeg -22.055881 0.437906 5.064763
RightLeg 35.477260 -0.000000 -0.000000
RightFoot -27.821715 -9.719498 -1.008808
RightToeBase 3.525463 -0.000000 -0.000000
LeftUpLeg -0.320775 -11.648041 -20.034994
LeftLeg -3.420031 -0.000000 0.000000
LeftFoot -6.150239 2.785143 -1.026369
LeftToeBase 5.983891 -0.000000 -0.000000
Spine -8.428039 -5.307178 35.244856
RightShoulder -14.935225 -16.892277 0.661206
RightArm 23.704899 -6.784629 60.629823
RightForeArm -6.264895 -0.000000 21.422699
RightHand 16.606976 0.000000 -7.041732
RightHandThumb1 -24.326973 -0.000000 -32.862282
LeftShoulder -21.641427 -13.753326 59.747791
LeftArm 46.746015 -52.454622 -20.043912
LeftForeArm 8.249045 -0.000000 21.579187
LeftHand -0.261940 -0.000000 2.830649
LeftHandThumb1 -26.253704 0.000000 33.147579
Head -4.733130 5.580971 27.489181
1958
root 6.037897 31.971678 -2.853985 10.909555 4.709081 6.455078
RightUpLeg -22.049443 0.410962 5.079247
RightLeg 35.459001 -0.000000 -0.000000
RightFoot -27.783383 -9.655886 -1.060075
RightToeBase 3.493345 -0.000000 -0.000000
LeftUpLeg -0.322972 -11.611756 -20.021648
LeftLeg -3.437004 -0.000000 0.000000
LeftFoot -6.144364 2.788383 -1.039959
LeftToeBase 5.985565 -0.000000 -0.000000
Spine -8.427696 -5.348017 35.249461
RightShoulder -14.903187 -16.914265 0.646167
RightArm 23.769124 -6.761597 60.646577
RightForeArm -6.252049 0.000000 21.338547
RightHand 16.586934 -0.000000 -6.915612
RightHandThumb1 -24.326973 -0.000000 -32.862282
LeftShoulder -21.679543 -13.831362 59.808416
LeftArm 47.259634 -52.490061 -20.423508
LeftForeArm 8.358468 -0.000000 21.515816
LeftHand -0.315607 -0.000000 2.954776
LeftHandThumb1 -26.253704 0.000000 33.147579
Head -4.762405 5.561331 27.627894
1959
root 6.035495 31.973555 -2.846063 10.911082 4.655614 6.453023
RightUpLeg -22.028355 0.386605 5.083216
RightLeg 35.425771 -0.000000 -0.000000
RightFoot -27.720517 -9.643511 -1.170680
RightToeBase 3.384901 -0.000000 -0.000000
LeftUpLeg -0.321956 -11.584674 -20.019118
LeftLeg -3.441373 -0.000000 0.000000
LeftFoot -6.127134 2.798938 -1.034143
LeftToeBase 5.869018 -0.000000 -0.000000
Spine -8.492206 -5.381074 35.242955
RightShoulder -14.798001 -16.968847 0.607872
RightArm 23.758167 -6.650643 60.734977
RightForeArm -6.316064 -0.000000 21.253492
RightHand 16.553442 0.000000 -6.877677
RightHandThumb1 -24.326973 -0.000000 -32.862282
LeftShoulder -21.594437 -13.761458 59.749123
LeftArm 47.810544 -52.653020 -20.777909
LeftForeArm 8.456762 0.000000 21.472943
LeftHand -0.460390 0.000000 3.126830
LeftHandThumb1 -26.253704 0.000000 33.147579
Head -4.705739 5.770920 27.817181
1960
root 6.034853 31.975488 -2.839292 10.916257 4.621294 6.449495
RightUpLeg -22.013585 0.352779 5.090745
RightLeg 35.398743 -0.000000 -0.000000
RightFoot -27.635022 -9.652716 -1.312924
RightToeBase 3.264784 -0.000000 -0.000000
LeftUpLeg -0.326629 -11.555074 -20.015830
LeftLeg -3.439841 -0.000000 0.000000
LeftFoot -6.112089 2.784062 -1.057522
LeftToeBase 5.859628 -0.000000 -0.000000
Spine -8.496074 -5.401018 35.242513
RightShoulder -14.770410 -16.947452 0.581459
RightArm 23.751306 -6.633142 60.775941
RightForeArm -6.341503 -0.000000 21.190178
RightHand 16.495421 -0.000000 -6.777369
RightHandThumb1 -24.326973 -0.000000 -32.862282
LeftShoulder -21.643582 -13.829951 59.789326
LeftArm 48.299561 -52.655434 -21.100595
LeftForeArm 8.475426 -0.000000 21.440125
LeftHand -0.542717 -0.000000 3.349382
LeftHandThumb1 -26.253704 0.000000 33.147579
Head -4.790028 5.716325 27.959121
1961
root 6.036228 31.975967 -2.834155 10.915694 4.589686 6.442516
RightUpLeg -21.999830 0.333440 5.094546
RightLeg 35.379822 -0.000000 -0.000000
RightFoot -27.576820 -9.644226 -1.444909
RightToeBase 3.212102 -0.000000 -0.000000
LeftUpLeg -0.326792 -11.519217 -20.017095
LeftLeg -3.436019 -0.000000 0.000000
LeftFoot -6.106509 2.785690 -1.035836
LeftToeBase 5.832093 -0.000000 -0.000000
Spine -8.476943 -5.385352 35.234896
RightShoulder -14.771237 -16.933667 0.568387
RightArm 23.750240 -6.618317 60.807150
RightForeArm -6.321470 -0.000000 21.133289
RightHand 16.463691 -0.000000 -6.650861
RightHandThumb1 -24.326973 -0.000000 -32.862282
LeftShoulder -21.681448 -13.918156 59.847863
LeftArm 48.712671 -52.656738 -21.372147
LeftForeArm 8.533692 -0.000000 21.427118
LeftHand -0.605150 -0.000000 3.445901
LeftHandThumb1 -26.253704 0.000000 33.147579
Head -4.865466 5.490453 28.110436
1962
root 6.036545 31.977005 -2.828916 10.906317 4.570606 6.438605
RightUpLeg -21.975660 0.347306 5.086955
RightLeg 35.358895 -0.000000 -0.000000
RightFoot -27.538134 -9.631223 -1.525988
RightToeBase 3.227590 -0.000000 -0.000000
LeftUpLeg -0.320820 -11.474951 -20.019227
LeftLeg -3.421512 -0.000000 0.000000
LeftFoot -6.107988 2.761648 -1.029337
LeftToeBase 5.879246 -0.000000 -0.000000
Spine -8.448605 -5.380435 35.222090
RightShoulder -14.764577 -16.919205 0.573841
RightArm 23.753180 -6.605675 60.822842
RightForeArm -6.319211 -0.000000 21.067601
RightHand 16.413592 -0.000000 -6.558306
RightHandThumb1 -24.326973 -0.000000 -32.862282
LeftShoulder -21.736917 -13.986810 59.897627
LeftArm 49.147348 -52.666111 -21.656634
LeftForeArm 8.589872 -0.000000 21.454225
LeftHand -0.661317 -0.000000 3.427540
LeftHandThumb1 -26.253704 0.000000 33.147579
Head -4.983436 5.311825 28.283974
1963
root 6.037504 31.977849 -2.822626 10.889093 4.559319 6.440889
RightUpLeg -21.932521 0.394186 5.069800
RightLeg 35.323491 -0.000000 -0.000000
RightFoot -27.486181 -9.672957 -1.612281
RightToeBase 3.164878 -0.000000 -0.000000
LeftUpLeg -0.307965 -11.418471 -20.029873
LeftLeg -3.396877 -0.000000 0.000000
LeftFoot -6.112126 2.734500 -1.037518
LeftToeBase 5.906098 -0.000000 -0.000000
Spine -8.430931 -5.363884 35.200822
RightShoulder -14.749146 -16.936131 0.586276
RightArm 23.754035 -6.575814 60.838876
RightForeArm -6.297974 -0.000000 20.998645
RightHand 16.355756 0.000000 -6.418492
RightHandThumb1 -24.326973 -0.000000 -32.862282
LeftShoulder -21.767977 -14.063703 59.939771
LeftArm 49.567273 -52.652144 -21.905507
LeftForeArm 8.624607 -0.000000 21.486339
LeftHand -0.773004 -0.000000 3.563045
LeftHandThumb1 -26.253704 0.000000 33.147579
Head -5.080797 5.161336 28.458896
